<svg xmlns="http://www.w3.org/2000/svg" viewBox="0 0 691.3 120.24"><defs><style>.cls-1{font-size:12.38px;font-family:Oswald-Regular, Oswald;}.cls-1,.cls-5,.cls-6,.cls-7{fill:#232422;}.cls-2{letter-spacing:0.06em;}.cls-3{letter-spacing:0.06em;}.cls-4{letter-spacing:0.06em;}.cls-5{font-size:5.43px;font-family:Overpass-Bold, Overpass;font-weight:700;letter-spacing:0.17em;}.cls-6{font-size:7.75px;font-family:Overpass-Light, Overpass;font-weight:300;}.cls-8{fill:none;}</style></defs><title>BANNER_CENTER_VERT</title><g id="Laag_2" data-name="Laag 2"><g id="Laag_1-2" data-name="Laag 1"><text class="cls-1" transform="translate(303.62 100.2)"><tspan class="cls-2">LE</tspan><tspan class="cls-3" x="11.44" y="0">NNER</tspan><tspan class="cls-4" x="38.89" y="0">T D</tspan><tspan class="cls-3" x="55.43" y="0">E</tspan><tspan class="cls-2" x="61.2" y="0"> </tspan><tspan class="cls-3" x="64.77" y="0">R</tspan><tspan class="cls-2" x="71.93" y="0">YC</tspan><tspan x="85.74" y="0">K</tspan></text><text class="cls-5" transform="translate(309.14 108.09)">FRONT END DEVELOPER</text><text class="cls-6" transform="translate(349.22 108.09)"> </text><path class="cls-7" d="M377.63,56.11c5.4,3.31,9.12,5.35,10.69,5.77l8.18-8.17c-2.05-.69-7.76-4.2-12.84-7.08-4.14-2.36-7.86-3.35-11.32-1.88l-.16-.16a13.34,13.34,0,0,0-1.48-13.82V20.18a12.56,12.56,0,0,0-1-1.11c-3.25-3.25-6.86-4.56-10.63-4.14a17.34,17.34,0,0,0-7.46,3c-.44-.48-.89-1-1.38-1.45-4.18-4.18-8.55-6.47-12.9-7.25V19.8a19.81,19.81,0,0,0-6.38-.09,24.67,24.67,0,0,0-10.47,4.17,50,50,0,0,0-7.76,6.52,100.11,100.11,0,0,0-10.06,11.52L320.5,59.74V53.39l16.85,16.85v0c7.33-7.14,9.31-9.06,14.55-14.15l-6.26-6.27c-2.28,2.44-4,4.36-6.14,6.53l-2.16-2.16L320.5,37.36v6.35l-4.09-4.09a23.21,23.21,0,0,1,3.3-3.93c.26-.26.52-.51.79-.75,5.23-4.79,11.16-5.9,16.85-2.76V21.6A20.53,20.53,0,0,1,342,25.21c.22.22.41.45.62.67,6.35,6.74,6.91,13.62,3,19.73l6.26,6.27,17.92,17.91.87-.87V79.5l7-7-7-7V54.84L363.85,48l2.41-2.41a7.74,7.74,0,0,1,4.44-2.48V53.69c1.88-.22,4,.54,6.93,2.42m-16.4-17-3.14,3.14-.51-.51-9.24-9.24a29.27,29.27,0,0,1,3.36-3.87,10.18,10.18,0,0,1,5.05-3,6.21,6.21,0,0,1,5.74,2c3.09,3.1,2.73,7.44-1.26,11.43"/><rect class="cls-8" width="691.3" height="120.24"/></g></g></svg>