<svg xmlns="http://www.w3.org/2000/svg" viewBox="0 0 808.31 103.51"><defs><style>.cls-1{fill:#232422;}.cls-2{fill:none;}</style></defs><title>BANNER_CENTER</title><g id="Laag_2" data-name="Laag 2"><g id="Laag_1-2" data-name="Laag 1"><path class="cls-1" d="M382,40.33H384V52.94h3.58v1.4H382Z"/><path class="cls-1" d="M389.9,40.33h5.44v1.46h-3.48v4.63h2.82v1.39h-2.82v5.13h3.51v1.4H389.9Z"/><path class="cls-1" d="M398,40.33h1.33l4,9.31V40.33h1.63v14h-1.25l-4-9.56v9.56H398Z"/><path class="cls-1" d="M408.14,40.33h1.33l4,9.31V40.33h1.62v14h-1.24l-4-9.56v9.56h-1.66Z"/><path class="cls-1" d="M418.29,40.33h5.43v1.46h-3.47v4.63h2.82v1.39h-2.82v5.13h3.51v1.4h-5.47Z"/><path class="cls-1" d="M426.35,40.33h2.82a4.6,4.6,0,0,1,3.12.88,3.58,3.58,0,0,1,1,2.84c0,1.8-.58,2.89-1.73,3.27l2,7h-1.89l-1.83-6.57h-1.52v6.57h-2Zm2.7,6a2.68,2.68,0,0,0,1.81-.5,2.44,2.44,0,0,0,.54-1.82,3.82,3.82,0,0,0-.19-1.36,1.25,1.25,0,0,0-.67-.72,3.15,3.15,0,0,0-1.37-.24h-.86v4.64Z"/><path class="cls-1" d="M437.79,41.79h-2.55V40.33h7v1.46h-2.47V54.34h-1.95Z"/><path class="cls-1" d="M449.31,40.33h3a4.19,4.19,0,0,1,3.21,1,4.69,4.69,0,0,1,.94,3.23v5.16a5.41,5.41,0,0,1-.92,3.45,3.74,3.74,0,0,1-3.07,1.13h-3.2Zm3.06,12.61a2.22,2.22,0,0,0,1.48-.4,1.78,1.78,0,0,0,.57-1.08,14.53,14.53,0,0,0,.11-2.06V44.85a8.43,8.43,0,0,0-.15-1.83,1.41,1.41,0,0,0-.61-.93,2.75,2.75,0,0,0-1.45-.3h-1.06V52.94Z"/><path class="cls-1" d="M459.46,40.33h5.43v1.46h-3.48v4.63h2.82v1.39h-2.82v5.13h3.52v1.4h-5.47Z"/><path class="cls-1" d="M472.52,40.33h2.82a4.6,4.6,0,0,1,3.12.88,3.58,3.58,0,0,1,1,2.84c0,1.8-.58,2.89-1.73,3.27l2,7h-1.89L476,47.77h-1.52v6.57h-2Zm2.7,6a2.68,2.68,0,0,0,1.81-.5,2.44,2.44,0,0,0,.54-1.82,3.82,3.82,0,0,0-.19-1.36,1.28,1.28,0,0,0-.67-.72,3.18,3.18,0,0,0-1.37-.24h-.86v4.64Z"/><path class="cls-1" d="M484.66,49.4l-3-9.07h1.81l2.15,6.77,2.11-6.77h1.83l-3,9.07v4.94h-1.87Z"/><path class="cls-1" d="M492.47,53.26a5.91,5.91,0,0,1-.85-3.41v-5a6.1,6.1,0,0,1,.83-3.5,3.34,3.34,0,0,1,2.94-1.19,3.28,3.28,0,0,1,2.71,1,4.78,4.78,0,0,1,.82,3v1.11h-1.85v-1a9.42,9.42,0,0,0-.09-1.49,1.38,1.38,0,0,0-.44-.83,1.73,1.73,0,0,0-1.13-.31,1.82,1.82,0,0,0-1.19.34,1.64,1.64,0,0,0-.51.93,8.55,8.55,0,0,0-.12,1.6v5.56a6.72,6.72,0,0,0,.17,1.68,1.49,1.49,0,0,0,.57.86,1.91,1.91,0,0,0,1.08.26,1.59,1.59,0,0,0,1.1-.33,1.45,1.45,0,0,0,.46-.9,9.14,9.14,0,0,0,.1-1.56v-1h1.85v1a5.47,5.47,0,0,1-.79,3.21,3.11,3.11,0,0,1-2.74,1.12A3.26,3.26,0,0,1,492.47,53.26Z"/><path class="cls-1" d="M501.82,40.33h2v6.61L507,40.33h1.81L506,46.51l3.22,7.83h-1.9l-2.68-6.57-.9,1.63v4.94h-2Z"/><path class="cls-1" d="M381.56,65.38V60.07H385v.86h-2.51v1.28h1.6v.85h-1.6v2.32Z"/><path class="cls-1" d="M387.15,65.38V60.07h2.35a1.72,1.72,0,0,1,1.33.45,1.65,1.65,0,0,1,.42,1.16,1.74,1.74,0,0,1-.28.93,1.39,1.39,0,0,1-.82.59l1.07,2.18h-1l-1-2.08h-1.11v2.08Zm.91-2.94h1.46a.78.78,0,0,0,.6-.22.81.81,0,0,0,.19-.54.71.71,0,0,0-.79-.75h-1.46Z"/><path class="cls-1" d="M395.78,65.47a2.28,2.28,0,0,1-.89-.16,2,2,0,0,1-.67-.43,2.63,2.63,0,0,1-.44-.63,2.74,2.74,0,0,1-.25-.73,4,4,0,0,1,0-1.59,2.94,2.94,0,0,1,.25-.74,2.57,2.57,0,0,1,.44-.62,1.84,1.84,0,0,1,.67-.43,2.28,2.28,0,0,1,.89-.16,2.32,2.32,0,0,1,1.08.24,1.83,1.83,0,0,1,.73.64,3.32,3.32,0,0,1,.39.88,3.8,3.8,0,0,1,0,2,3.64,3.64,0,0,1-.39.88,1.83,1.83,0,0,1-.73.64A2.32,2.32,0,0,1,395.78,65.47Zm0-.87a1.2,1.2,0,0,0,1.08-.64,2.19,2.19,0,0,0,.23-.6,2.74,2.74,0,0,0,.08-.64,2.84,2.84,0,0,0-.08-.66,2.19,2.19,0,0,0-.23-.6,1.21,1.21,0,0,0-.43-.44,1.23,1.23,0,0,0-.65-.17,1.12,1.12,0,0,0-.81.31,1.54,1.54,0,0,0-.45.71,2.91,2.91,0,0,0-.13.85,2.84,2.84,0,0,0,.08.66,2.27,2.27,0,0,0,.23.6,1.16,1.16,0,0,0,.43.45A1.26,1.26,0,0,0,395.78,64.6Z"/><path class="cls-1" d="M404.63,65.38h-.83L401.61,62a2.11,2.11,0,0,1-.22-.4c0,.12,0,.25,0,.4v3.35h-.9V60.07h.88l2.14,3.3a2.93,2.93,0,0,1,.22.4c0-.14,0-.27,0-.4v-3.3h.9Z"/><path class="cls-1" d="M409.29,60.94v4.44h-.91V60.94h-1.5v-.87h3.92v.87Z"/><path class="cls-1" d="M416.2,65.38V60.07h3.46v.86h-2.55v1.28h1.57v.85h-1.57v1.46h2.72v.86Z"/><path class="cls-1" d="M426.27,65.38h-.82L423.25,62a2.87,2.87,0,0,1-.22-.4c0,.12,0,.25,0,.4v3.35h-.9V60.07H423l2.14,3.3a2.93,2.93,0,0,1,.22.4c0-.14,0-.27,0-.4v-3.3h.9Z"/><path class="cls-1" d="M428.86,60.07h1.64a3,3,0,0,1,1,.15,2.2,2.2,0,0,1,.73.4,2.15,2.15,0,0,1,.48.6,2.45,2.45,0,0,1,.28.72,3.33,3.33,0,0,1,.09.78,3.13,3.13,0,0,1-.08.75,2.62,2.62,0,0,1-.75,1.33,2.28,2.28,0,0,1-.74.42,3.19,3.19,0,0,1-1,.16h-1.61Zm1.73,4.45a1.46,1.46,0,0,0,.71-.16,1.19,1.19,0,0,0,.48-.43,1.8,1.8,0,0,0,.25-.57,2.61,2.61,0,0,0,.08-.64,2.21,2.21,0,0,0-.36-1.27,1.22,1.22,0,0,0-1.07-.52h-.91v3.59Z"/><path class="cls-1" d="M438.6,60.07h1.64a3,3,0,0,1,1,.15,2.42,2.42,0,0,1,.73.4,2.35,2.35,0,0,1,.48.6,2.76,2.76,0,0,1,.28.72,3.33,3.33,0,0,1,.09.78,3.74,3.74,0,0,1-.08.75,2.83,2.83,0,0,1-.28.71,2.45,2.45,0,0,1-.48.62,2.28,2.28,0,0,1-.74.42,3.19,3.19,0,0,1-1,.16H438.6Zm1.74,4.45a1.49,1.49,0,0,0,.71-.16,1.33,1.33,0,0,0,.48-.43,2.41,2.41,0,0,0,.25-.57,2.61,2.61,0,0,0,.08-.64,2.21,2.21,0,0,0-.37-1.27,1.21,1.21,0,0,0-1.07-.52h-.91v3.59Z"/><path class="cls-1" d="M445.19,65.38V60.07h3.46v.86H446.1v1.28h1.57v.85H446.1v1.46h2.72v.86Z"/><path class="cls-1" d="M452.61,65.38l-1.85-5.31h1l1.19,3.59c.06.22.11.39.13.48,0-.1.07-.27.13-.48l1.19-3.59h1l-1.84,5.31Z"/><path class="cls-1" d="M457.55,65.38V60.07H461v.86h-2.54v1.28H460v.85h-1.56v1.46h2.71v.86Z"/><path class="cls-1" d="M463.49,65.38V60.07h.91v4.44H467v.87Z"/><path class="cls-1" d="M471.21,65.47a2.36,2.36,0,0,1-.9-.16,2,2,0,0,1-.66-.43,2.63,2.63,0,0,1-.44-.63,2.74,2.74,0,0,1-.25-.73,4,4,0,0,1,0-1.59,2.94,2.94,0,0,1,.25-.74,2.57,2.57,0,0,1,.44-.62,1.89,1.89,0,0,1,.66-.43,2.36,2.36,0,0,1,.9-.16,2.32,2.32,0,0,1,1.08.24,1.9,1.9,0,0,1,.73.64,3.32,3.32,0,0,1,.39.88,3.8,3.8,0,0,1,0,2,3.64,3.64,0,0,1-.39.88,1.9,1.9,0,0,1-.73.64A2.32,2.32,0,0,1,471.21,65.47Zm0-.87a1.23,1.23,0,0,0,1.08-.64,2.57,2.57,0,0,0,.23-.6,2.74,2.74,0,0,0,.08-.64,2.84,2.84,0,0,0-.08-.66,2.57,2.57,0,0,0-.23-.6,1.21,1.21,0,0,0-.43-.44,1.26,1.26,0,0,0-.65-.17,1.12,1.12,0,0,0-.81.31,1.54,1.54,0,0,0-.45.71,2.61,2.61,0,0,0-.13.85,2.84,2.84,0,0,0,.08.66,2.27,2.27,0,0,0,.23.6,1.16,1.16,0,0,0,.43.45A1.26,1.26,0,0,0,471.21,64.6Z"/><path class="cls-1" d="M475.93,65.38V60.07h2.21a1.74,1.74,0,0,1,1.35.48,1.65,1.65,0,0,1,.43,1.16,1.63,1.63,0,0,1-1.78,1.66h-1.3v2Zm2.26-2.88a.75.75,0,0,0,.6-.23.85.85,0,0,0,.19-.56.88.88,0,0,0-.18-.54.74.74,0,0,0-.61-.24h-1.35V62.5Z"/><path class="cls-1" d="M486.88,65.38H486V62.56a6.11,6.11,0,0,1,0-.64c-.06.18-.14.4-.24.65l-1.29,2.9-1.29-2.91c-.09-.21-.17-.42-.25-.64a6.11,6.11,0,0,1,0,.64v2.82h-.91V60.07H483l1.37,3.12.14.39.14-.39L486,60.07h.88Z"/><path class="cls-1" d="M489.47,65.38V60.07h3.46v.86h-2.55v1.28H492v.85h-1.57v1.46h2.71v.86Z"/><path class="cls-1" d="M499.54,65.38h-.83L496.51,62a4.5,4.5,0,0,1-.22-.4,2.41,2.41,0,0,1,0,.4v3.35h-.9V60.07h.87l2.15,3.3c.05.07.12.21.22.4,0-.14,0-.27,0-.4v-3.3h.9Z"/><path class="cls-1" d="M504.2,60.94v4.44h-.91V60.94h-1.51v-.87h3.93v.87Z"/><path class="cls-1" d="M348.91,59.58c3.59,2.2,6.07,3.56,7.12,3.83L361.46,58c-1.36-.46-5.16-2.79-8.54-4.71-2.75-1.57-5.23-2.23-7.53-1.25l-.1-.11a8.88,8.88,0,0,0-1-9.19v-7a8.83,8.83,0,0,0-.65-.74,8.44,8.44,0,0,0-7.08-2.75,11.47,11.47,0,0,0-5,2c-.29-.32-.59-.64-.91-1a16.09,16.09,0,0,0-8.59-4.82v7a13.13,13.13,0,0,0-4.24-.06,16.56,16.56,0,0,0-7,2.77,34,34,0,0,0-5.16,4.34,66.88,66.88,0,0,0-6.69,7.67L310.9,62V57.77L322.11,69h0c4.88-4.75,6.19-6,9.68-9.41l-4.17-4.17c-1.51,1.62-2.64,2.89-4.08,4.34l-1.44-1.44L310.9,47.1v4.23l-2.72-2.73a15.66,15.66,0,0,1,2.2-2.61l.52-.5c3.49-3.18,7.43-3.92,11.21-1.83v-7a13.6,13.6,0,0,1,3.12,2.4l.41.44c4.22,4.49,4.6,9.07,2,13.13l4.17,4.17,11.92,11.92.58-.58v7L349,70.46l-4.68-4.69v-7l-4.55-4.55,1.6-1.61a5.2,5.2,0,0,1,2.95-1.65v7c1.25-.14,2.67.36,4.61,1.62M338,48.25l-2.09,2.09-.34-.34-6.14-6.14a18,18,0,0,1,2.23-2.58,6.8,6.8,0,0,1,3.36-2,4.12,4.12,0,0,1,3.82,1.34c2.06,2.06,1.81,5-.84,7.6"/><rect class="cls-2" width="808.31" height="103.51"/></g></g></svg>