<svg xmlns="http://www.w3.org/2000/svg" viewBox="0 0 808.31 103.51"><defs><style>.cls-1{fill:#232422;}.cls-2{fill:none;}</style></defs><title>BANNER_LEFT</title><g id="Laag_2" data-name="Laag 2"><g id="Laag_1-2" data-name="Laag 1"><path class="cls-1" d="M83,40.33h2V52.94h3.58v1.4H83Z"/><path class="cls-1" d="M90.86,40.33h5.43v1.46H92.81v4.63h2.82v1.39H92.81v5.13h3.51v1.4H90.86Z"/><path class="cls-1" d="M98.94,40.33h1.33l4,9.31V40.33h1.62v14h-1.24l-4-9.56v9.56H98.94Z"/><path class="cls-1" d="M109.09,40.33h1.33l4,9.31V40.33H116v14h-1.25l-4-9.56v9.56h-1.66Z"/><path class="cls-1" d="M119.24,40.33h5.44v1.46H121.2v4.63H124v1.39H121.2v5.13h3.51v1.4h-5.47Z"/><path class="cls-1" d="M127.3,40.33h2.82a4.64,4.64,0,0,1,3.13.88,3.61,3.61,0,0,1,1,2.84c0,1.8-.58,2.89-1.73,3.27l2,7h-1.88l-1.84-6.57h-1.52v6.57h-2Zm2.7,6a2.65,2.65,0,0,0,1.81-.5,2.44,2.44,0,0,0,.55-1.82,4.06,4.06,0,0,0-.19-1.36,1.3,1.3,0,0,0-.68-.72,3.15,3.15,0,0,0-1.37-.24h-.86v4.64Z"/><path class="cls-1" d="M138.74,41.79H136.2V40.33h7v1.46h-2.48V54.34h-1.95Z"/><path class="cls-1" d="M150.26,40.33h3a4.19,4.19,0,0,1,3.21,1,4.69,4.69,0,0,1,1,3.23v5.16a5.34,5.34,0,0,1-.93,3.45,3.74,3.74,0,0,1-3.07,1.13h-3.2Zm3.06,12.61a2.22,2.22,0,0,0,1.48-.4,1.68,1.68,0,0,0,.57-1.08,13.15,13.15,0,0,0,.11-2.06V44.85a9.26,9.26,0,0,0-.14-1.83,1.46,1.46,0,0,0-.62-.93,2.73,2.73,0,0,0-1.45-.3h-1.06V52.94Z"/><path class="cls-1" d="M160.41,40.33h5.44v1.46h-3.48v4.63h2.82v1.39h-2.82v5.13h3.51v1.4h-5.47Z"/><path class="cls-1" d="M173.47,40.33h2.82a4.64,4.64,0,0,1,3.13.88,3.61,3.61,0,0,1,1,2.84c0,1.8-.58,2.89-1.73,3.27l2,7h-1.89L177,47.77h-1.52v6.57h-2Zm2.7,6a2.66,2.66,0,0,0,1.81-.5,2.44,2.44,0,0,0,.54-1.82,3.82,3.82,0,0,0-.19-1.36,1.25,1.25,0,0,0-.67-.72,3.15,3.15,0,0,0-1.37-.24h-.86v4.64Z"/><path class="cls-1" d="M185.62,49.4l-3-9.07h1.82l2.14,6.77,2.11-6.77h1.84l-3,9.07v4.94h-1.87Z"/><path class="cls-1" d="M193.42,53.26a5.91,5.91,0,0,1-.85-3.41v-5a6.17,6.17,0,0,1,.83-3.5,3.34,3.34,0,0,1,2.94-1.19,3.28,3.28,0,0,1,2.71,1,4.72,4.72,0,0,1,.82,3v1.11H198v-1a9.42,9.42,0,0,0-.09-1.49,1.33,1.33,0,0,0-.44-.83,1.71,1.71,0,0,0-1.13-.31,1.82,1.82,0,0,0-1.19.34,1.64,1.64,0,0,0-.51.93,8.55,8.55,0,0,0-.12,1.6v5.56a6.22,6.22,0,0,0,.18,1.68,1.44,1.44,0,0,0,.56.86,2,2,0,0,0,1.08.26,1.62,1.62,0,0,0,1.11-.33,1.56,1.56,0,0,0,.46-.9,10.53,10.53,0,0,0,.09-1.56v-1h1.85v1a5.47,5.47,0,0,1-.79,3.21,3.09,3.09,0,0,1-2.74,1.12A3.27,3.27,0,0,1,193.42,53.26Z"/><path class="cls-1" d="M202.78,40.33h1.95v6.61L208,40.33h1.82L207,46.51l3.22,7.83h-1.91l-2.68-6.57-.9,1.63v4.94h-1.95Z"/><path class="cls-1" d="M82.51,65.38V60.07h3.43v.86H83.42v1.28H85v.85H83.42v2.32Z"/><path class="cls-1" d="M88.1,65.38V60.07h2.36a1.74,1.74,0,0,1,1.33.45,1.69,1.69,0,0,1,.41,1.16,1.66,1.66,0,0,1-.28.93,1.4,1.4,0,0,1-.81.59l1.06,2.18h-1l-1-2.08H89v2.08ZM89,62.44h1.46a.78.78,0,0,0,.6-.22.76.76,0,0,0,.19-.54.79.79,0,0,0-.18-.53.78.78,0,0,0-.61-.22H89Z"/><path class="cls-1" d="M96.73,65.47a2.35,2.35,0,0,1-.89-.16,1.84,1.84,0,0,1-.66-.43,2.16,2.16,0,0,1-.44-.63,2.77,2.77,0,0,1-.26-.73,4.55,4.55,0,0,1,0-1.59,3,3,0,0,1,.26-.74,2.12,2.12,0,0,1,.44-.62,1.72,1.72,0,0,1,.66-.43,2.35,2.35,0,0,1,.89-.16,2.39,2.39,0,0,1,1.09.24,1.8,1.8,0,0,1,.72.64,2.79,2.79,0,0,1,.39.88,3.8,3.8,0,0,1,0,2,3,3,0,0,1-.39.88,1.8,1.8,0,0,1-.72.64A2.39,2.39,0,0,1,96.73,65.47Zm0-.87a1.18,1.18,0,0,0,.65-.18,1.22,1.22,0,0,0,.44-.46,2.57,2.57,0,0,0,.23-.6,2.73,2.73,0,0,0,.07-.64,2.84,2.84,0,0,0-.07-.66,2.57,2.57,0,0,0-.23-.6,1.24,1.24,0,0,0-1.09-.61,1.12,1.12,0,0,0-.81.31,1.72,1.72,0,0,0-.45.71,2.91,2.91,0,0,0-.12.85,2.84,2.84,0,0,0,.07.66,2.27,2.27,0,0,0,.23.6,1.19,1.19,0,0,0,.44.45A1.22,1.22,0,0,0,96.73,64.6Z"/><path class="cls-1" d="M105.58,65.38h-.82L102.56,62a2.87,2.87,0,0,1-.22-.4c0,.12,0,.25,0,.4v3.35h-.9V60.07h.88l2.14,3.3a2.93,2.93,0,0,1,.22.4c0-.14,0-.27,0-.4v-3.3h.9Z"/><path class="cls-1" d="M110.25,60.94v4.44h-.91V60.94h-1.51v-.87h3.93v.87Z"/><path class="cls-1" d="M117.16,65.38V60.07h3.45v.86h-2.54v1.28h1.57v.85h-1.57v1.46h2.71v.86Z"/><path class="cls-1" d="M127.23,65.38h-.83L124.2,62a4.5,4.5,0,0,1-.22-.4,2.49,2.49,0,0,1,0,.4v3.35h-.9V60.07H124l2.15,3.3c.05.07.12.21.22.4a2.8,2.8,0,0,1,0-.4v-3.3h.91Z"/><path class="cls-1" d="M129.81,60.07h1.64a3.05,3.05,0,0,1,1,.15,2.42,2.42,0,0,1,.73.4,2.35,2.35,0,0,1,.48.6,2.76,2.76,0,0,1,.28.72,3.33,3.33,0,0,1,.09.78,3.74,3.74,0,0,1-.08.75,2.83,2.83,0,0,1-.28.71,2.45,2.45,0,0,1-.48.62,2.28,2.28,0,0,1-.74.42,3.19,3.19,0,0,1-1,.16h-1.61Zm1.74,4.45a1.49,1.49,0,0,0,.71-.16,1.22,1.22,0,0,0,.47-.43,2.09,2.09,0,0,0,.26-.57,2.62,2.62,0,0,0,.07-.64,2.21,2.21,0,0,0-.36-1.27,1.21,1.21,0,0,0-1.07-.52h-.91v3.59Z"/><path class="cls-1" d="M139.56,60.07h1.63a3,3,0,0,1,1,.15,2.31,2.31,0,0,1,.73.4,2.35,2.35,0,0,1,.48.6,2.76,2.76,0,0,1,.28.72,3.33,3.33,0,0,1,.09.78,3.74,3.74,0,0,1-.08.75,2.62,2.62,0,0,1-.75,1.33,2.39,2.39,0,0,1-.74.42,3.21,3.21,0,0,1-1,.16h-1.6Zm1.73,4.45a1.46,1.46,0,0,0,.71-.16,1.19,1.19,0,0,0,.48-.43,2.06,2.06,0,0,0,.25-.57,2.61,2.61,0,0,0,.08-.64,2.14,2.14,0,0,0-.37-1.27,1.2,1.2,0,0,0-1.06-.52h-.91v3.59Z"/><path class="cls-1" d="M146.15,65.38V60.07h3.45v.86h-2.54v1.28h1.57v.85h-1.57v1.46h2.71v.86Z"/><path class="cls-1" d="M153.56,65.38l-1.85-5.31h1l1.19,3.59c.07.22.11.39.14.48a4.09,4.09,0,0,1,.13-.48l1.18-3.59h1l-1.84,5.31Z"/><path class="cls-1" d="M158.5,65.38V60.07H162v.86h-2.55v1.28H161v.85h-1.57v1.46h2.71v.86Z"/><path class="cls-1" d="M164.44,65.38V60.07h.91v4.44h2.58v.87Z"/><path class="cls-1" d="M172.16,65.47a2.31,2.31,0,0,1-.89-.16,2,2,0,0,1-.67-.43,2.63,2.63,0,0,1-.44-.63,3.15,3.15,0,0,1-.25-.73,4,4,0,0,1,0-1.59,3.4,3.4,0,0,1,.25-.74,2.57,2.57,0,0,1,.44-.62,1.84,1.84,0,0,1,.67-.43,2.55,2.55,0,0,1,2,.08,1.83,1.83,0,0,1,.73.64,2.79,2.79,0,0,1,.39.88,3.8,3.8,0,0,1,0,2,3,3,0,0,1-.39.88,1.83,1.83,0,0,1-.73.64A2.32,2.32,0,0,1,172.16,65.47Zm0-.87a1.18,1.18,0,0,0,.65-.18,1.19,1.19,0,0,0,.43-.46,2.19,2.19,0,0,0,.23-.6,2.29,2.29,0,0,0,.08-.64,2.39,2.39,0,0,0-.08-.66,2.19,2.19,0,0,0-.23-.6,1.13,1.13,0,0,0-.43-.44,1.23,1.23,0,0,0-.65-.17,1.12,1.12,0,0,0-.81.31,1.54,1.54,0,0,0-.45.71,2.91,2.91,0,0,0-.13.85,2.84,2.84,0,0,0,.08.66,2.27,2.27,0,0,0,.23.6,1.24,1.24,0,0,0,.43.45A1.29,1.29,0,0,0,172.16,64.6Z"/><path class="cls-1" d="M176.89,65.38V60.07h2.2a1.71,1.71,0,0,1,1.35.48,1.72,1.72,0,0,1,0,2.32,1.7,1.7,0,0,1-1.33.5H177.8v2Zm2.25-2.88a.72.72,0,0,0,.6-.23.85.85,0,0,0,.2-.56.89.89,0,0,0-.19-.54.72.72,0,0,0-.61-.24H177.8V62.5Z"/><path class="cls-1" d="M187.84,65.38h-.91V62.56a6.11,6.11,0,0,1,0-.64c-.06.18-.14.4-.25.65l-1.28,2.9-1.29-2.91c-.09-.21-.18-.42-.25-.64a6.11,6.11,0,0,1,0,.64v2.82H183V60.07h.91l1.37,3.12c.06.14.1.27.14.39q.06-.18.15-.39L187,60.07h.89Z"/><path class="cls-1" d="M190.42,65.38V60.07h3.46v.86h-2.55v1.28h1.57v.85h-1.57v1.46h2.72v.86Z"/><path class="cls-1" d="M200.49,65.38h-.82L197.47,62a2.87,2.87,0,0,1-.22-.4c0,.12,0,.25,0,.4v3.35h-.9V60.07h.88l2.14,3.3a2.93,2.93,0,0,1,.22.4c0-.14,0-.27,0-.4v-3.3h.9Z"/><path class="cls-1" d="M205.16,60.94v4.44h-.91V60.94h-1.51v-.87h3.93v.87Z"/><path class="cls-1" d="M49.87,59.58c3.59,2.2,6.06,3.56,7.11,3.83L62.42,58c-1.36-.46-5.16-2.79-8.54-4.71C51.12,51.7,48.65,51,46.35,52l-.11-.11a8.86,8.86,0,0,0-1-9.19v-7a8.83,8.83,0,0,0-.65-.74,8.42,8.42,0,0,0-7.07-2.75,11.5,11.5,0,0,0-5,2c-.29-.32-.59-.64-.91-1a16.1,16.1,0,0,0-8.58-4.82v7a13.19,13.19,0,0,0-4.25-.06,16.52,16.52,0,0,0-7,2.77,33.6,33.6,0,0,0-5.17,4.34A66.88,66.88,0,0,0,0,50.14L11.86,62V57.77L23.07,69h0c4.87-4.75,6.19-6,9.68-9.41l-4.17-4.17C27.07,57,26,58.3,24.51,59.75l-1.44-1.44L11.86,47.1v4.23L9.13,48.6A15.66,15.66,0,0,1,11.33,46l.53-.5c3.48-3.18,7.42-3.92,11.21-1.83v-7A13.77,13.77,0,0,1,26.18,39c.15.15.27.29.41.44,4.23,4.49,4.6,9.07,2,13.13l4.17,4.17L44.67,68.68l.58-.58v7l4.69-4.68-4.69-4.69v-7L40.7,54.18l1.6-1.61a5.2,5.2,0,0,1,3-1.65v7c1.25-.14,2.68.36,4.62,1.62M39,48.25l-2.09,2.09L36.53,50l-6.15-6.14a18.76,18.76,0,0,1,2.23-2.58,6.84,6.84,0,0,1,3.36-2,4.12,4.12,0,0,1,3.82,1.34c2.06,2.06,1.82,5-.83,7.6"/><rect class="cls-2" width="808.31" height="103.51"/></g></g></svg>