<svg xmlns="http://www.w3.org/2000/svg" viewBox="0 0 808.31 103.51"><defs><style>.cls-1{fill:#232422;}.cls-2{fill:none;}</style></defs><title>BANNER_RIGHT</title><g id="Laag_2" data-name="Laag 2"><g id="Laag_1-2" data-name="Laag 1"><path class="cls-1" d="M680.59,40.33h1.95V52.94h3.58v1.4h-5.53Z"/><path class="cls-1" d="M688.49,40.33h5.43v1.46h-3.47v4.63h2.82v1.39h-2.82v5.13H694v1.4h-5.47Z"/><path class="cls-1" d="M696.57,40.33h1.33l4,9.31V40.33h1.63v14h-1.25l-4-9.56v9.56h-1.66Z"/><path class="cls-1" d="M706.73,40.33h1.33l4,9.31V40.33h1.62v14h-1.24l-4-9.56v9.56h-1.66Z"/><path class="cls-1" d="M716.88,40.33h5.43v1.46h-3.48v4.63h2.82v1.39h-2.82v5.13h3.52v1.4h-5.47Z"/><path class="cls-1" d="M724.94,40.33h2.82a4.6,4.6,0,0,1,3.12.88,3.58,3.58,0,0,1,1,2.84c0,1.8-.58,2.89-1.73,3.27l2,7h-1.89l-1.83-6.57h-1.53v6.57h-1.95Zm2.7,6a2.68,2.68,0,0,0,1.81-.5,2.44,2.44,0,0,0,.54-1.82,3.82,3.82,0,0,0-.19-1.36,1.28,1.28,0,0,0-.67-.72,3.18,3.18,0,0,0-1.37-.24h-.87v4.64Z"/><path class="cls-1" d="M736.37,41.79h-2.54V40.33h7v1.46h-2.47V54.34h-2Z"/><path class="cls-1" d="M747.89,40.33h3.05a4.19,4.19,0,0,1,3.21,1,4.69,4.69,0,0,1,.94,3.23v5.16a5.41,5.41,0,0,1-.92,3.45,3.76,3.76,0,0,1-3.08,1.13h-3.2ZM751,52.94a2.22,2.22,0,0,0,1.48-.4,1.78,1.78,0,0,0,.57-1.08,14.53,14.53,0,0,0,.11-2.06V44.85A8.43,8.43,0,0,0,753,43a1.44,1.44,0,0,0-.61-.93,2.77,2.77,0,0,0-1.46-.3h-1V52.94Z"/><path class="cls-1" d="M758.05,40.33h5.43v1.46H760v4.63h2.82v1.39H760v5.13h3.51v1.4h-5.46Z"/><path class="cls-1" d="M771.11,40.33h2.82a4.6,4.6,0,0,1,3.12.88,3.61,3.61,0,0,1,1,2.84c0,1.8-.58,2.89-1.73,3.27l2,7h-1.88l-1.83-6.57h-1.53v6.57h-1.95Zm2.7,6a2.63,2.63,0,0,0,1.8-.5,2.4,2.4,0,0,0,.55-1.82,3.82,3.82,0,0,0-.19-1.36,1.27,1.27,0,0,0-.68-.72,3.1,3.1,0,0,0-1.36-.24h-.87v4.64Z"/><path class="cls-1" d="M783.25,49.4l-3-9.07H782l2.15,6.77,2.11-6.77h1.83l-3,9.07v4.94h-1.87Z"/><path class="cls-1" d="M791.05,53.26a6,6,0,0,1-.84-3.41v-5a6.1,6.1,0,0,1,.83-3.5A3.34,3.34,0,0,1,794,40.21a3.26,3.26,0,0,1,2.7,1,4.72,4.72,0,0,1,.83,3v1.11h-1.85v-1a9.42,9.42,0,0,0-.09-1.49,1.43,1.43,0,0,0-.44-.83,1.76,1.76,0,0,0-1.14-.31,1.79,1.79,0,0,0-1.18.34,1.64,1.64,0,0,0-.51.93,8.55,8.55,0,0,0-.12,1.6v5.56a6.72,6.72,0,0,0,.17,1.68,1.48,1.48,0,0,0,.56.86A2,2,0,0,0,794,53a1.6,1.6,0,0,0,1.11-.33,1.5,1.5,0,0,0,.46-.9,10.3,10.3,0,0,0,.1-1.56v-1h1.85v1a5.55,5.55,0,0,1-.79,3.21A3.12,3.12,0,0,1,794,54.5,3.29,3.29,0,0,1,791.05,53.26Z"/><path class="cls-1" d="M800.41,40.33h2v6.61l3.21-6.61h1.82l-2.77,6.18,3.22,7.83H806l-2.68-6.57-.9,1.63v4.94h-2Z"/><path class="cls-1" d="M680.14,65.38V60.07h3.43v.86h-2.52v1.28h1.61v.85h-1.61v2.32Z"/><path class="cls-1" d="M685.74,65.38V60.07h2.35a1.72,1.72,0,0,1,1.33.45,1.77,1.77,0,0,1,.13,2.09,1.34,1.34,0,0,1-.81.59l1.06,2.18h-1l-1-2.08h-1.11v2.08Zm.91-2.94h1.46a.75.75,0,0,0,.59-.22.76.76,0,0,0,.19-.54.79.79,0,0,0-.18-.53.76.76,0,0,0-.6-.22h-1.46Z"/><path class="cls-1" d="M694.37,65.47a2.36,2.36,0,0,1-.9-.16,2,2,0,0,1-.66-.43,2.63,2.63,0,0,1-.44-.63,2.74,2.74,0,0,1-.25-.73,4,4,0,0,1,0-1.59,2.94,2.94,0,0,1,.25-.74,2.57,2.57,0,0,1,.44-.62,1.89,1.89,0,0,1,.66-.43,2.36,2.36,0,0,1,.9-.16,2.32,2.32,0,0,1,1.08.24,1.9,1.9,0,0,1,.73.64,3.32,3.32,0,0,1,.39.88,3.8,3.8,0,0,1,0,2,3.64,3.64,0,0,1-.39.88,1.9,1.9,0,0,1-.73.64A2.32,2.32,0,0,1,694.37,65.47Zm0-.87a1.23,1.23,0,0,0,1.08-.64,2.57,2.57,0,0,0,.23-.6,2.74,2.74,0,0,0,.08-.64,2.84,2.84,0,0,0-.08-.66,2.57,2.57,0,0,0-.23-.6A1.21,1.21,0,0,0,695,61a1.26,1.26,0,0,0-.65-.17,1.12,1.12,0,0,0-.81.31,1.54,1.54,0,0,0-.45.71,2.61,2.61,0,0,0-.13.85,2.84,2.84,0,0,0,.08.66,2,2,0,0,0,.23.6,1.16,1.16,0,0,0,.43.45A1.26,1.26,0,0,0,694.37,64.6Z"/><path class="cls-1" d="M703.22,65.38h-.83L700.19,62a4.5,4.5,0,0,1-.22-.4,2.41,2.41,0,0,1,0,.4v3.35h-.91V60.07H700l2.15,3.3c0,.07.12.21.22.4a2.75,2.75,0,0,1,0-.4v-3.3h.9Z"/><path class="cls-1" d="M707.88,60.94v4.44H707V60.94h-1.51v-.87h3.93v.87Z"/><path class="cls-1" d="M714.79,65.38V60.07h3.46v.86H715.7v1.28h1.57v.85H715.7v1.46h2.72v.86Z"/><path class="cls-1" d="M724.86,65.38H724L721.84,62a2.11,2.11,0,0,1-.22-.4c0,.12,0,.25,0,.4v3.35h-.9V60.07h.88l2.14,3.3a2.93,2.93,0,0,1,.22.4c0-.14,0-.27,0-.4v-3.3h.9Z"/><path class="cls-1" d="M727.45,60.07h1.63a3,3,0,0,1,1,.15,2.2,2.2,0,0,1,.73.4,2.35,2.35,0,0,1,.48.6,2.76,2.76,0,0,1,.28.72,3.33,3.33,0,0,1,.09.78,3.74,3.74,0,0,1-.08.75,2.62,2.62,0,0,1-.75,1.33,2.39,2.39,0,0,1-.74.42,3.21,3.21,0,0,1-1,.16h-1.6Zm1.73,4.45a1.46,1.46,0,0,0,.71-.16,1.19,1.19,0,0,0,.48-.43,2.06,2.06,0,0,0,.25-.57,2.61,2.61,0,0,0,.08-.64,2.21,2.21,0,0,0-.36-1.27,1.22,1.22,0,0,0-1.07-.52h-.91v3.59Z"/><path class="cls-1" d="M737.19,60.07h1.64a3.05,3.05,0,0,1,1,.15,2.25,2.25,0,0,1,.72.4,2.19,2.19,0,0,1,.49.6,2.76,2.76,0,0,1,.28.72,4,4,0,0,1,.08.78,3.13,3.13,0,0,1-.08.75,2.62,2.62,0,0,1-.75,1.33,2.28,2.28,0,0,1-.74.42,3.19,3.19,0,0,1-1,.16h-1.61Zm1.74,4.45a1.49,1.49,0,0,0,.71-.16,1.22,1.22,0,0,0,.47-.43,1.8,1.8,0,0,0,.25-.57,2.48,2.48,0,0,0-.28-1.91,1.21,1.21,0,0,0-1.07-.52h-.91v3.59Z"/><path class="cls-1" d="M743.78,65.38V60.07h3.46v.86h-2.55v1.28h1.57v.85h-1.57v1.46h2.72v.86Z"/><path class="cls-1" d="M751.2,65.38l-1.85-5.31h1l1.2,3.59c.06.22.11.39.13.48,0-.1.07-.27.13-.48L753,60.07h1l-1.85,5.31Z"/><path class="cls-1" d="M756.13,65.38V60.07h3.46v.86H757v1.28h1.57v.85H757v1.46h2.72v.86Z"/><path class="cls-1" d="M762.08,65.38V60.07H763v4.44h2.58v.87Z"/><path class="cls-1" d="M769.8,65.47a2.36,2.36,0,0,1-.9-.16,1.84,1.84,0,0,1-.66-.43,2.63,2.63,0,0,1-.44-.63,2.74,2.74,0,0,1-.25-.73,4,4,0,0,1,0-1.59,2.94,2.94,0,0,1,.25-.74,2.57,2.57,0,0,1,.44-.62,1.72,1.72,0,0,1,.66-.43,2.36,2.36,0,0,1,.9-.16,2.32,2.32,0,0,1,1.08.24,1.9,1.9,0,0,1,.73.64,3.32,3.32,0,0,1,.39.88,3.8,3.8,0,0,1,0,2,3.64,3.64,0,0,1-.39.88,1.9,1.9,0,0,1-.73.64A2.32,2.32,0,0,1,769.8,65.47Zm0-.87a1.14,1.14,0,0,0,.64-.18,1.22,1.22,0,0,0,.44-.46,2.57,2.57,0,0,0,.23-.6,2.74,2.74,0,0,0,.08-.64,2.84,2.84,0,0,0-.08-.66,2.57,2.57,0,0,0-.23-.6,1.29,1.29,0,0,0-.43-.44,1.26,1.26,0,0,0-.65-.17,1.09,1.09,0,0,0-.81.31,1.54,1.54,0,0,0-.45.71,2.61,2.61,0,0,0-.13.85,2.84,2.84,0,0,0,.08.66,2,2,0,0,0,.23.6,1.16,1.16,0,0,0,.43.45A1.23,1.23,0,0,0,769.8,64.6Z"/><path class="cls-1" d="M774.52,65.38V60.07h2.21a1.74,1.74,0,0,1,1.35.48,1.65,1.65,0,0,1,.43,1.16,1.63,1.63,0,0,1-1.78,1.66h-1.3v2Zm2.25-2.88a.72.72,0,0,0,.6-.23.8.8,0,0,0,.2-.56.83.83,0,0,0-.19-.54.71.71,0,0,0-.61-.24h-1.34V62.5Z"/><path class="cls-1" d="M785.47,65.38h-.91V62.56a6.11,6.11,0,0,1,0-.64c-.06.18-.14.4-.24.65l-1.29,2.9-1.29-2.91c-.09-.21-.17-.42-.25-.64a6.11,6.11,0,0,1,0,.64v2.82h-.91V60.07h.92l1.36,3.12q.09.21.15.39l.14-.39,1.38-3.12h.88Z"/><path class="cls-1" d="M788.06,65.38V60.07h3.46v.86H789v1.28h1.57v.85H789v1.46h2.71v.86Z"/><path class="cls-1" d="M798.13,65.38h-.83L795.1,62a4.5,4.5,0,0,1-.22-.4,2.41,2.41,0,0,1,0,.4v3.35H794V60.07h.88l2.15,3.3c.05.07.12.21.22.4a2.75,2.75,0,0,1,0-.4v-3.3h.9Z"/><path class="cls-1" d="M802.79,60.94v4.44h-.91V60.94h-1.51v-.87h3.93v.87Z"/><path class="cls-1" d="M647.5,59.58c3.59,2.2,6.07,3.56,7.11,3.83L660.05,58c-1.36-.46-5.16-2.79-8.54-4.71C648.76,51.7,646.28,51,644,52l-.1-.11a8.9,8.9,0,0,0-1-9.19v-7a8.83,8.83,0,0,0-.65-.74,8.44,8.44,0,0,0-7.08-2.75,11.47,11.47,0,0,0-5,2c-.29-.32-.59-.64-.91-1a16.13,16.13,0,0,0-8.59-4.82v7a13.13,13.13,0,0,0-4.24-.06,16.56,16.56,0,0,0-7,2.77,33.57,33.57,0,0,0-5.16,4.34,66.09,66.09,0,0,0-6.7,7.67L609.49,62V57.77L620.7,69h0c4.88-4.75,6.19-6,9.68-9.41l-4.17-4.17c-1.52,1.62-2.64,2.89-4.08,4.34l-1.44-1.44L609.49,47.1v4.23l-2.72-2.73A16,16,0,0,1,609,46l.53-.5c3.48-3.18,7.43-3.92,11.21-1.83v-7a13.34,13.34,0,0,1,3.11,2.4l.42.44c4.22,4.49,4.6,9.07,2,13.13l4.17,4.17,11.92,11.92.58-.58v7l4.68-4.68-4.68-4.69v-7l-4.56-4.55,1.61-1.61a5.14,5.14,0,0,1,2.95-1.65v7c1.25-.14,2.67.36,4.61,1.62M636.59,48.25l-2.09,2.09-.34-.34L628,43.86a18,18,0,0,1,2.23-2.58,6.8,6.8,0,0,1,3.36-2,4.13,4.13,0,0,1,3.82,1.34c2.05,2.06,1.81,5-.84,7.6"/><rect class="cls-2" width="808.31" height="103.51"/></g></g></svg>